<?xml version="1.0" encoding="UTF-8"?>
<svg width="241px" height="60px" viewBox="0 0 241 60" version="1.1" xmlns="http://www.w3.org/2000/svg" xmlns:xlink="http://www.w3.org/1999/xlink">
    <!-- Generator: Sketch 62 (91390) - https://sketch.com -->
    <title>logo_white</title>
    <desc>Created with Sketch.</desc>
    <g id="Page-1" stroke="none" stroke-width="1" fill="none" fill-rule="evenodd">
        <g id="logo_white" fill="#FFFFFF" fill-rule="nonzero">
            <path d="M34.8705882,48.6494118 L25.5875294,53.2785882 L16.3051765,48.6494118 C15.2668235,48.1312941 14.0463529,48.8865882 14.0463529,50.0470588 L14.0463529,58.3454118 C14.0463529,59.5058824 15.2668235,60.2611765 16.3051765,59.7430588 L25.5875294,55.1131765 L34.8705882,59.7430588 C35.9089412,60.2611765 37.1294118,59.5058824 37.1294118,58.3454118 L37.1294118,50.0470588 C37.1294118,48.8865882 35.9089412,48.1312941 34.8705882,48.6494118" id="Fill-20"></path>
            <path d="M25.2529412,5.52494118 L22.1407059,15.4588235 C21.8061176,16.5268235 22.2945882,17.7818824 23.0442353,17.7818824 L28.4054118,17.7818824 C29.1550588,17.7818824 29.6428235,16.5268235 29.3082353,15.4588235 L26.196,5.52494118 L25.2529412,5.52494118" id="Fill-21"></path>
            <path d="M30.3938824,4.89811765 C30.3938824,7.47670588 28.3037647,9.56752941 25.7244706,9.56752941 C23.1458824,9.56752941 21.0557647,7.47670588 21.0557647,4.89811765 C21.0557647,2.31952941 23.1458824,0.229411765 25.7244706,0.229411765 C28.3037647,0.229411765 30.3938824,2.31952941 30.3938824,4.89811765" id="Fill-22"></path>
            <path d="M46.4477647,38.0809412 C46.4477647,38.9315294 45.7581176,39.6225882 44.9103529,39.6225882 L6.26541176,39.6225882 C5.41764706,39.6225882 4.72870588,38.9315294 4.72870588,38.0809412 L4.72870588,20.1945882 C4.72870588,19.344 5.41764706,18.6515294 6.26541176,18.6515294 L44.9103529,18.6515294 C45.7581176,18.6515294 46.4477647,19.344 46.4477647,20.1945882 L46.4477647,38.0809412 L46.4477647,38.0809412 Z M51.0995294,20.1945882 C51.0995294,16.7788235 48.3232941,13.9997647 44.9103529,13.9997647 L6.26541176,13.9997647 C2.85176471,13.9997647 0.0755294118,16.7788235 0.0755294118,20.1945882 L0.0755294118,38.0809412 C0.0755294118,41.4967059 2.85176471,44.2764706 6.26541176,44.2764706 L44.9103529,44.2764706 C48.3232941,44.2764706 51.0995294,41.4967059 51.0995294,38.0809412 L51.0995294,20.1945882 L51.0995294,20.1945882 Z" id="Fill-23"></path>
            <path d="M19.9524706,32.8171765 C18.8583529,32.8171765 17.9710588,31.9305882 17.9710588,30.8357647 C17.9710588,29.7261176 17.0682353,28.8225882 15.9578824,28.8225882 C14.8475294,28.8225882 13.944,29.7261176 13.944,30.8357647 C13.944,31.9305882 13.0574118,32.8171765 11.9625882,32.8171765 C10.8684706,32.8171765 9.98188235,31.9305882 9.98188235,30.8357647 C9.98188235,27.5407059 12.6628235,24.8597647 15.9578824,24.8597647 C19.2529412,24.8597647 21.9338824,27.5407059 21.9338824,30.8357647 C21.9338824,31.9305882 21.0472941,32.8171765 19.9524706,32.8171765" id="Fill-24"></path>
            <path d="M39.2131765,32.8171765 C38.1183529,32.8171765 37.2317647,31.9305882 37.2317647,30.8357647 C37.2317647,29.7261176 36.3282353,28.8225882 35.2178824,28.8225882 C34.1082353,28.8225882 33.2047059,29.7261176 33.2047059,30.8357647 C33.2047059,31.9305882 32.3174118,32.8171765 31.2232941,32.8171765 C30.1284706,32.8171765 29.2418824,31.9305882 29.2418824,30.8357647 C29.2418824,27.5407059 31.9228235,24.8597647 35.2178824,24.8597647 C38.5129412,24.8597647 41.1938824,27.5407059 41.1938824,30.8357647 C41.1938824,31.9305882 40.3072941,32.8171765 39.2131765,32.8171765" id="Fill-25"></path>
            <path d="M72.6240021,22.3679894 C74.8997668,22.3679894 76.212708,23.0682247 77.3943551,24.2061071 C77.7444727,24.5562247 78.0945904,24.5999894 78.3134139,24.5999894 C79.0136492,24.5999894 79.5825904,24.0310482 79.5825904,23.3308129 C79.5825904,22.9369306 79.4075315,22.6743424 79.2762374,22.4992835 C77.9195315,20.7049306 75.6000021,19.6983424 72.6240021,19.6983424 C68.9040021,19.6983424 65.9280021,21.3614012 65.9280021,24.9938718 C65.9280021,32.1712835 77.4381198,30.3769306 77.4381198,34.8846953 C77.4381198,37.16046 75.2936492,37.9919894 72.7990609,37.9919894 C70.3482374,37.9919894 68.5976492,37.2042247 67.2409433,35.8475188 C66.8908256,35.4974012 66.540708,35.4098718 66.2781198,35.4098718 C65.5778845,35.4098718 65.0089433,35.9788129 65.0089433,36.6790482 C65.0089433,36.9854012 65.0964727,37.2042247 65.3152962,37.5105776 C66.4531786,38.9548129 69.2103551,40.6616365 72.7990609,40.6616365 C76.956708,40.6616365 80.2390609,38.8672835 80.2390609,34.8846953 C80.2390609,27.8823424 68.7289433,29.5891659 68.7289433,24.9938718 C68.7289433,22.9806953 70.6545904,22.3679894 72.6240021,22.3679894 Z M84.7284727,19.9171659 C83.940708,19.9171659 83.3280021,20.5298718 83.3280021,21.3176365 L83.3280021,32.7402247 C83.3280021,36.8978718 84.7284727,40.7054012 91.4682374,40.7054012 C98.2517668,40.7054012 99.6084727,36.8978718 99.6084727,32.7402247 L99.6084727,21.3176365 C99.6084727,20.5298718 98.9957668,19.9171659 98.2517668,19.9171659 C97.4640021,19.9171659 96.8075315,20.5298718 96.8075315,21.3176365 L96.8075315,32.7402247 C96.8075315,35.5849306 95.8884727,38.0357541 91.4682374,38.0357541 C87.0480021,38.0357541 86.1289433,35.5849306 86.1289433,32.7402247 L86.1289433,21.3176365 C86.1289433,20.5298718 85.4724727,19.9171659 84.7284727,19.9171659 Z M105.060708,19.9171659 C105.804708,19.9171659 106.461179,20.5298718 106.461179,21.3176365 L106.461179,22.7181071 C107.292708,21.2301071 109.480943,19.6545776 112.413179,19.6545776 C118.10259,19.6545776 121.560002,22.9806953 121.560002,30.1581071 C121.560002,37.3355188 118.10259,40.7054012 112.413179,40.7054012 C109.480943,40.7054012 107.380237,39.1298718 106.461179,37.6418718 L106.461179,47.5326953 C106.461179,48.2766953 105.804708,48.9331659 105.060708,48.9331659 C104.316708,48.9331659 103.660237,48.2766953 103.660237,47.5326953 L103.660237,21.3176365 C103.660237,20.5298718 104.316708,19.9171659 105.060708,19.9171659 Z M106.373649,30.1581071 C106.373649,35.8037541 108.999532,38.1670482 112.413179,38.1670482 C116.439532,38.1670482 118.715296,35.6286953 118.715296,30.1581071 C118.715296,24.6875188 116.352002,22.1929306 112.325649,22.1929306 C109.087061,22.1929306 106.373649,24.4686953 106.373649,30.1581071 Z M126.136943,19.9171659 C126.880943,19.9171659 127.537414,20.5298718 127.537414,21.3176365 L127.537414,22.7181071 C128.368943,21.2301071 130.557179,19.6545776 133.489414,19.6545776 C139.178826,19.6545776 142.636237,22.9806953 142.636237,30.1581071 C142.636237,37.3355188 139.178826,40.7054012 133.489414,40.7054012 C130.557179,40.7054012 128.456473,39.1298718 127.537414,37.6418718 L127.537414,47.5326953 C127.537414,48.2766953 126.880943,48.9331659 126.136943,48.9331659 C125.392943,48.9331659 124.736473,48.2766953 124.736473,47.5326953 L124.736473,21.3176365 C124.736473,20.5298718 125.392943,19.9171659 126.136943,19.9171659 Z M127.449884,30.1581071 C127.449884,35.8037541 130.075767,38.1670482 133.489414,38.1670482 C137.515767,38.1670482 139.791532,35.6286953 139.791532,30.1581071 C139.791532,24.6875188 137.428237,22.1929306 133.401884,22.1929306 C130.163296,22.1929306 127.449884,24.4686953 127.449884,30.1581071 Z M153.690355,19.6545776 C159.379767,19.6545776 162.880943,22.9806953 162.880943,30.1581071 C162.880943,37.3355188 159.379767,40.7054012 153.690355,40.7054012 C148.044708,40.7054012 144.499767,37.3355188 144.499767,30.1581071 C144.499767,22.9806953 148.044708,19.6545776 153.690355,19.6545776 Z M153.690355,38.1670482 C157.716708,38.1670482 160.036237,35.7599894 160.036237,30.1581071 C160.036237,24.6437541 157.716708,22.1929306 153.690355,22.1929306 C149.664002,22.1929306 147.344473,24.6437541 147.344473,30.1581071 C147.344473,35.7599894 149.664002,38.1670482 153.690355,38.1670482 Z M168.858355,21.3176365 C168.858355,20.5298718 168.245649,19.9171659 167.457884,19.9171659 C166.67012,19.9171659 166.057414,20.5298718 166.057414,21.3176365 L166.057414,39.0861071 C166.057414,39.8738718 166.67012,40.4865776 167.457884,40.4865776 C168.245649,40.4865776 168.858355,39.8738718 168.858355,39.0861071 L168.858355,29.2828129 C168.858355,25.25646 170.915296,22.4555188 174.941649,22.4555188 C175.685649,22.4555188 176.298355,21.8428129 176.298355,21.0988129 C176.298355,20.3548129 175.685649,19.7421071 174.941649,19.7421071 C171.921884,19.7421071 169.733649,21.2301071 168.858355,23.2432835 L168.858355,21.3176365 Z M181.197179,20.2672835 L179.490355,20.2672835 C178.746355,20.2672835 178.177414,20.8362247 178.177414,21.5802247 C178.177414,22.3242247 178.746355,22.8931659 179.490355,22.8931659 L181.197179,22.8931659 L181.197179,34.9722247 C181.197179,38.1670482 183.079061,40.4865776 186.536473,40.4865776 C187.280473,40.4865776 187.893179,39.9176365 187.893179,39.1736365 C187.893179,38.4296365 187.280473,37.8606953 186.536473,37.8606953 C185.048473,37.8606953 183.99812,36.8541071 183.99812,34.9722247 L183.99812,22.8931659 L186.842826,22.8931659 C187.586826,22.8931659 188.155767,22.3242247 188.155767,21.5802247 C188.155767,20.8362247 187.586826,20.2672835 186.842826,20.2672835 L183.99812,20.2672835 L183.99812,15.6719894 C183.99812,14.9279894 183.385414,14.2715188 182.597649,14.2715188 C181.853649,14.2715188 181.197179,14.9279894 181.197179,15.6719894 L181.197179,20.2672835 Z M195.755296,22.28046 C196.411767,21.1863424 198.468708,19.6545776 200.919532,19.6545776 C206.652708,19.6545776 209.803767,23.02446 209.803767,30.1581071 C209.803767,37.2917541 206.608943,40.7054012 200.919532,40.7054012 C198.731296,40.7054012 196.805649,40.0051659 195.755296,38.8235188 L195.755296,46.5698718 C195.755296,47.8828129 194.704943,48.9331659 193.392002,48.9331659 C192.079061,48.9331659 191.028708,47.8828129 191.028708,46.5698718 L191.028708,22.28046 C191.028708,20.9675188 192.079061,19.9171659 193.392002,19.9171659 C194.704943,19.9171659 195.755296,20.9675188 195.755296,22.28046 Z M204.989649,30.2018718 C204.989649,25.8691659 203.370355,23.6809306 200.306826,23.6809306 C197.243296,23.6809306 195.624002,25.8691659 195.624002,30.2018718 C195.624002,34.4908129 197.243296,36.6790482 200.306826,36.6790482 C203.370355,36.6790482 204.989649,34.4908129 204.989649,30.2018718 Z M220.785884,23.8559894 C218.860237,23.8559894 217.503532,24.7312835 216.409414,25.5190482 C215.971767,25.8254012 215.621649,25.9566953 215.096473,25.9566953 C213.95859,25.9566953 213.039532,25.0376365 213.039532,23.8997541 C213.039532,23.4183424 213.21459,22.8931659 213.608473,22.4555188 C214.833884,21.0988129 217.02212,19.6545776 220.785884,19.6545776 C226.212708,19.6545776 229.451296,22.3242247 229.451296,26.9632835 L229.451296,38.1670482 C229.451296,39.4362247 228.400943,40.4865776 227.131767,40.4865776 C225.86259,40.4865776 224.812237,39.4362247 224.812237,38.1670482 C223.63059,40.0489306 221.704943,40.7054012 219.079061,40.7054012 C214.79012,40.7054012 211.945414,38.0357541 211.945414,34.0969306 C211.945414,30.0268129 215.227767,27.9261071 219.035296,27.9261071 L224.768473,27.9261071 L224.768473,27.1383424 C224.768473,25.1689306 223.324237,23.8559894 220.785884,23.8559894 Z M220.304473,36.7665776 C222.624002,36.7665776 224.768473,35.2785776 224.768473,32.8277541 L224.768473,31.6023424 L219.648002,31.6023424 C217.722355,31.6023424 216.672002,32.5214012 216.672002,34.0969306 C216.672002,35.7599894 217.853649,36.7665776 220.304473,36.7665776 Z M234.991061,8.97598941 C233.67812,8.97598941 232.627767,10.0263424 232.627767,11.3392835 L232.627767,34.8846953 C232.627767,38.5609306 234.772237,40.4865776 238.185884,40.4865776 C239.411296,40.4865776 240.37412,39.5237541 240.37412,38.2983424 C240.37412,37.0729306 239.411296,36.1101071 238.185884,36.1101071 C237.879532,36.1101071 237.354355,35.8475188 237.354355,35.3223424 L237.354355,11.3392835 C237.354355,10.0263424 236.304002,8.97598941 234.991061,8.97598941 Z" id="supportpal"></path>
        </g>
    </g>
</svg>